<svg viewBox="0 0 100 100" xmlns="http://www.w3.org/2000/svg">
  <!-- Background -->
  <rect width="100" height="100" fill="white"/>

  <!-- Shirt Outline -->
  <path d="M25,30 L25,85 L75,85 L75,30 C67,25 58,20 50,20 C42,20 33,25 25,30 Z"
        fill="none" stroke="black" stroke-width="3" />

  <!-- Collar -->
  <path d="M40,30 L50,20 L60,30"
        fill="none" stroke="black" stroke-width="3" />

  <!-- Left Sleeve -->
  <path d="M25,30 L10,45 L15,50 L25,35"
        fill="none" stroke="black" stroke-width="3" />

  <!-- Right Sleeve -->
  <path d="M75,30 L90,45 L85,50 L75,35"
        fill="none" stroke="black" stroke-width="3" />

  <!-- Buttons -->
  <circle cx="45" cy="40" r="2" fill="navy" />
  <circle cx="45" cy="50" r="2" fill="navy" />
  <circle cx="45" cy="60" r="2" fill="navy" />
  <circle cx="45" cy="70" r="2" fill="navy" />

  <!-- Accent Line -->
  <line x1="20" y1="85" x2="80" y2="85" stroke="navy" stroke-width="3" />
</svg>
